<svg>
	<defs>
		<clipPath id="NameSvg" clipPathUnits="objectBoundingBox" transform="scale(0.0005208333333333333, 0.000925925925925926)">
			<path d="M45.37,1002.8l0,-927.703l54.682,0c12.344,0 21.765,4.43 28.262,13.289c9.095,12.234 16.855,34.383 23.28,66.445c8.374,41.344 14.636,94.184 18.787,158.52c4.151,64.336 6.226,137.848 6.226,220.535c0,70.453 -1.408,132.891 -4.223,187.313c-2.815,54.421 -6.425,99.457 -10.828,135.105c-4.403,35.648 -9.222,63.703 -14.456,84.164c-5.233,20.461 -11.55,35.965 -18.949,46.512c-7.399,10.547 -15.899,15.82 -25.5,15.82l-57.281,0Zm21.007,-109.476l33.892,0c10.467,0 18.678,-5.696 24.634,-17.086c5.955,-11.391 10.702,-27.422 14.239,-48.094c4.981,-29.11 8.861,-68.238 11.64,-117.387c2.779,-49.148 4.169,-108.738 4.169,-178.769c0,-97.032 -2.725,-171.598 -8.175,-223.7c-5.451,-52.101 -12.074,-87.011 -19.87,-104.73c-5.631,-12.656 -14.69,-18.984 -27.179,-18.984l-33.35,0l0,708.75Z" />
			<path d="M205.951,1002.8l0,-927.703l114.778,0l0,109.477l-93.771,0l0,284.132l87.816,0l0,108.844l-87.816,0l0,315.774l97.453,0l0,109.476l-118.46,0Z" />
			<path d="M353.214,1002.8l0,-927.703l21.548,0l83.376,728.367l0,-728.367l20.141,0l0,927.703l-21.548,0l-83.377,-729l0,729l-20.14,0Z" />
			<path d="M513.362,1002.8l0,-927.703l21.548,0l83.376,728.367l0,-728.367l20.141,0l0,927.703l-21.548,0l-83.377,-729l0,729l-20.14,0Z" />
			<rect x="677.3" y="75.1" width="21.007" height="927.703" />
			<path d="M728.192,704.748l19.815,-10.125c0.939,46.407 3.122,84.481 6.551,114.223c3.429,29.742 8.753,53.789 15.972,72.141c7.218,18.351 15.34,27.527 24.363,27.527c8.013,0 15.087,-6.961 21.223,-20.883c6.136,-13.922 10.702,-33.011 13.698,-57.269c2.995,-24.258 4.493,-50.731 4.493,-79.418c0,-29.11 -1.443,-54.528 -4.331,-76.254c-2.887,-21.727 -7.652,-39.973 -14.293,-54.738c-4.259,-9.704 -13.68,-24.786 -28.261,-45.247c-14.582,-20.46 -24.797,-39.761 -30.644,-57.902c-7.58,-23.203 -13.228,-51.996 -16.946,-86.379c-3.718,-34.383 -5.577,-72.879 -5.577,-115.488c0,-46.828 2.274,-90.598 6.822,-131.309c4.548,-40.711 11.189,-71.613 19.924,-92.707c8.735,-21.093 18.444,-31.64 29.128,-31.64c11.766,0 22.143,11.074 31.13,33.222c8.988,22.149 15.9,54.739 20.736,97.77c4.837,43.031 7.436,91.758 7.797,146.18l-20.141,8.859c-1.083,-58.641 -4.746,-102.938 -10.99,-132.891c-6.245,-29.953 -15.466,-44.929 -27.666,-44.929c-12.705,0 -21.963,13.605 -27.774,40.816c-5.811,27.211 -8.717,60.012 -8.717,98.402c0,33.328 2.057,60.75 6.172,82.266c4.043,21.516 14.6,43.559 31.672,66.129c17.073,22.57 28.785,42.293 35.138,59.168c9.24,24.89 16.061,56.426 20.465,94.605c4.403,38.18 6.605,82.16 6.605,131.942c0,49.359 -2.418,95.871 -7.255,139.535c-4.836,43.664 -11.785,77.625 -20.844,101.883c-9.06,24.258 -19.256,36.386 -30.589,36.386c-14.366,0 -26.403,-12.234 -36.112,-36.703c-9.71,-24.468 -17.325,-61.277 -22.848,-110.425c-5.522,-49.149 -8.428,-104.731 -8.716,-166.747Z" />
			<path d="M945.512,1002.8l0,-927.703l21.007,0l0,380.953l82.51,0l0,-380.953l21.007,0l0,927.703l-21.007,0l0,-437.273l-82.51,0l0,437.273l-21.007,0Z" />
			<path d="M1098.62,550.975c0,-153.984 7.074,-274.535 21.223,-361.652c14.149,-87.118 32.412,-130.676 54.79,-130.676c14.654,0 27.865,20.461 39.631,61.383c11.767,40.922 20.736,97.98 26.908,171.175c6.172,73.196 9.258,156.2 9.258,249.012c0,94.078 -3.248,178.242 -9.745,252.492c-6.497,74.25 -15.701,130.465 -27.612,168.645c-11.911,38.18 -24.76,57.269 -38.548,57.269c-14.943,0 -28.297,-21.093 -40.064,-63.281c-11.767,-42.187 -20.682,-99.773 -26.745,-172.758c-6.064,-72.984 -9.096,-150.187 -9.096,-231.609Zm21.656,1.898c0,111.797 5.143,199.864 15.43,264.2c10.287,64.336 23.19,96.504 38.711,96.504c15.809,0 28.821,-32.485 39.035,-97.454c10.215,-64.968 15.322,-157.148 15.322,-276.539c0,-75.515 -2.184,-141.433 -6.551,-197.754c-4.367,-56.32 -10.756,-99.984 -19.166,-130.992c-8.41,-31.008 -17.848,-46.511 -28.315,-46.511c-14.871,0 -27.666,29.847 -38.386,89.543c-10.72,59.695 -16.08,159.363 -16.08,299.003Z" />
			<path d="M1277.5,1002.8l0,-927.703l54.682,0c12.344,0 21.764,4.43 28.261,13.289c9.096,12.234 16.856,34.383 23.28,66.445c8.374,41.344 14.636,94.184 18.787,158.52c4.151,64.336 6.226,137.848 6.226,220.535c0,70.453 -1.407,132.891 -4.223,187.313c-2.815,54.421 -6.424,99.457 -10.828,135.105c-4.403,35.648 -9.222,63.703 -14.455,84.164c-5.234,20.461 -11.55,35.965 -18.949,46.512c-7.4,10.547 -15.9,15.82 -25.501,15.82l-57.28,0Zm21.006,-109.476l33.892,0c10.467,0 18.679,-5.696 24.634,-17.086c5.956,-11.391 10.702,-27.422 14.239,-48.094c4.981,-29.11 8.861,-68.238 11.64,-117.387c2.78,-49.148 4.169,-108.738 4.169,-178.769c0,-97.032 -2.725,-171.598 -8.175,-223.7c-5.45,-52.101 -12.073,-87.011 -19.87,-104.73c-5.63,-12.656 -14.69,-18.984 -27.178,-18.984l-33.351,0l0,708.75Z" />
			<path d="M1511.93,638.936l0,-108.844l67.243,-0.633l0,344.25c-10.323,48.094 -20.97,84.27 -31.943,108.528c-10.972,24.258 -22.234,36.386 -33.784,36.386c-15.592,0 -29.759,-19.511 -42.5,-58.535c-12.741,-39.023 -22.36,-95.449 -28.857,-169.277c-6.497,-73.828 -9.745,-156.305 -9.745,-247.43c0,-90.281 3.23,-174.551 9.691,-252.808c6.461,-78.258 15.755,-136.371 27.882,-174.34c12.128,-37.969 26.096,-56.953 41.905,-56.953c11.478,0 21.855,10.863 31.131,32.59c9.276,21.726 16.549,51.996 21.819,90.808c5.269,38.813 9.276,89.438 12.019,151.875l-18.949,30.375c-2.383,-47.25 -5.342,-84.375 -8.879,-111.375c-3.538,-27 -8.591,-48.621 -15.16,-64.863c-6.569,-16.242 -13.86,-24.363 -21.873,-24.363c-9.601,0 -17.902,8.543 -24.904,25.628c-7.002,17.086 -12.651,39.551 -16.946,67.395c-4.295,27.844 -7.634,58.43 -10.016,91.758c-4.043,57.375 -6.064,119.601 -6.064,186.679c0,82.688 2.436,151.875 7.309,207.563c4.873,55.687 11.965,97.031 21.277,124.031c9.312,27 19.202,40.5 29.669,40.5c9.096,0 17.975,-10.23 26.637,-30.691c8.663,-20.461 15.232,-42.293 19.708,-65.496l0,-172.758l-46.67,0Z" />
			<path d="M1610.58,1002.8l0,-927.703l114.778,0l0,109.477l-93.772,0l0,284.132l87.816,0l0,108.844l-87.816,0l0,315.774l97.453,0l0,109.476l-118.459,0Z" />
			<path d="M1750.91,704.748l19.816,-10.125c0.938,46.407 3.122,84.481 6.551,114.223c3.429,29.742 8.752,53.789 15.971,72.141c7.219,18.351 15.34,27.527 24.363,27.527c8.013,0 15.088,-6.961 21.224,-20.883c6.135,-13.922 10.701,-33.011 13.697,-57.269c2.996,-24.258 4.494,-50.731 4.494,-79.418c0,-29.11 -1.444,-54.528 -4.331,-76.254c-2.888,-21.727 -7.652,-39.973 -14.294,-54.738c-4.259,-9.704 -13.679,-24.786 -28.261,-45.247c-14.582,-20.46 -24.796,-39.761 -30.644,-57.902c-7.579,-23.203 -13.228,-51.996 -16.946,-86.379c-3.717,-34.383 -5.576,-72.879 -5.576,-115.488c0,-46.828 2.274,-90.598 6.822,-131.309c4.547,-40.711 11.189,-71.613 19.923,-92.707c8.735,-21.093 18.444,-31.64 29.128,-31.64c11.767,0 22.144,11.074 31.131,33.222c8.987,22.149 15.899,54.739 20.736,97.77c4.836,43.031 7.435,91.758 7.796,146.18l-20.14,8.859c-1.083,-58.641 -4.747,-102.938 -10.991,-132.891c-6.244,-29.953 -15.466,-44.929 -27.666,-44.929c-12.705,0 -21.963,13.605 -27.774,40.816c-5.811,27.211 -8.717,60.012 -8.717,98.402c0,33.328 2.058,60.75 6.173,82.266c4.042,21.516 14.599,43.559 31.672,66.129c17.072,22.57 28.785,42.293 35.137,59.168c9.24,24.89 16.062,56.426 20.465,94.605c4.404,38.18 6.605,82.16 6.605,131.942c0,49.359 -2.418,95.871 -7.254,139.535c-4.837,43.664 -11.785,77.625 -20.845,101.883c-9.059,24.258 -19.256,36.386 -30.589,36.386c-14.365,0 -26.403,-12.234 -36.112,-36.703c-9.709,-24.468 -17.325,-61.277 -22.847,-110.425c-5.523,-49.149 -8.428,-104.731 -8.717,-166.747Z" />
		</clipPath>
	</defs>
</svg>