<?xml version="1.0" encoding="UTF-8" standalone="no"?>
<!DOCTYPE svg PUBLIC "-//W3C//DTD SVG 1.1//EN" "http://www.w3.org/Graphics/SVG/1.1/DTD/svg11.dtd">
<svg width="100%" height="100%" viewBox="0 0 1920 1080" version="1.1" xmlns="http://www.w3.org/2000/svg" xmlns:xlink="http://www.w3.org/1999/xlink" xml:space="preserve" xmlns:serif="http://www.serif.com/" style="fill-rule:evenodd;clip-rule:evenodd;stroke-linejoin:round;stroke-miterlimit:1.41421;">
    <g transform="matrix(1.12093,0,0,5.0234,-32.0088,-1717.96)">
        <path d="M48.528,346.06L154.419,346.06C177.481,346.06 194.754,351.544 206.239,362.513C217.723,373.482 223.465,389.091 223.465,409.341C223.465,430.153 217.208,446.419 204.692,458.138C192.176,469.857 173.075,475.716 147.387,475.716L112.512,475.716L112.512,552.216L48.528,552.216L48.528,346.06ZM112.512,433.95L128.122,433.95C140.403,433.95 149.028,431.818 153.997,427.552C158.965,423.286 161.45,417.825 161.45,411.169C161.45,404.7 159.294,399.216 154.981,394.716C150.669,390.216 142.559,387.966 130.653,387.966L112.512,387.966L112.512,433.95Z" style="fill-rule:nonzero;"/>
        <path d="M257.637,552.216L257.637,346.06L363.809,346.06C383.497,346.06 398.544,347.747 408.95,351.122C419.356,354.497 427.747,360.755 434.122,369.896C440.497,379.036 443.684,390.169 443.684,403.294C443.684,414.732 441.247,424.599 436.372,432.896C431.497,441.193 424.794,447.919 416.262,453.075C410.825,456.357 403.372,459.075 393.903,461.232C401.497,463.763 407.028,466.294 410.497,468.825C412.84,470.513 416.239,474.122 420.692,479.653C425.145,485.185 428.122,489.45 429.622,492.45L460.419,552.216L388.419,552.216L354.387,489.216C350.075,481.06 346.231,475.763 342.856,473.325C338.262,470.138 333.059,468.544 327.247,468.544L321.622,468.544L321.622,552.216L257.637,552.216ZM321.622,429.591L348.481,429.591C351.387,429.591 357.012,428.653 365.356,426.778C369.575,425.935 373.02,423.778 375.692,420.31C378.364,416.841 379.7,412.857 379.7,408.357C379.7,401.7 377.59,396.591 373.372,393.028C369.153,389.466 361.231,387.685 349.606,387.685L321.622,387.685L321.622,429.591Z" style="fill-rule:nonzero;"/>
        <path d="M467.872,449.278C467.872,415.622 477.247,389.419 495.997,370.669C514.747,351.919 540.856,342.544 574.325,342.544C608.637,342.544 635.075,351.755 653.637,370.177C672.2,388.599 681.481,414.403 681.481,447.591C681.481,471.685 677.426,491.443 669.317,506.864C661.208,522.286 649.489,534.286 634.161,542.864C618.833,551.443 599.731,555.732 576.856,555.732C553.606,555.732 534.364,552.028 519.129,544.622C503.895,537.216 491.544,525.497 482.075,509.466C472.606,493.435 467.872,473.372 467.872,449.278ZM531.575,449.56C531.575,470.372 535.442,485.325 543.176,494.419C550.911,503.513 561.434,508.06 574.747,508.06C588.434,508.06 599.028,503.607 606.528,494.7C614.028,485.794 617.778,469.81 617.778,446.747C617.778,427.341 613.864,413.161 606.036,404.208C598.208,395.255 587.59,390.778 574.184,390.778C561.34,390.778 551.028,395.325 543.247,404.419C535.465,413.513 531.575,428.56 531.575,449.56Z" style="fill-rule:nonzero;"/>
        <path d="M801.575,346.06L865.419,346.06L865.419,458.138C865.419,481.669 863.333,499.575 859.161,511.857C854.989,524.138 846.598,534.544 833.989,543.075C821.379,551.607 805.231,555.872 785.544,555.872C764.731,555.872 748.606,553.06 737.169,547.435C725.731,541.81 716.895,533.583 710.661,522.755C704.426,511.927 700.747,498.544 699.622,482.607L760.512,474.31C760.606,483.403 761.403,490.153 762.903,494.56C764.403,498.966 766.934,502.528 770.497,505.247C772.934,507.028 776.403,507.919 780.903,507.919C788.028,507.919 793.254,505.271 796.583,499.974C799.911,494.677 801.575,485.747 801.575,473.185L801.575,346.06Z" style="fill-rule:nonzero;"/>
        <path d="M907.747,346.06L1078.46,346.06L1078.46,390.075L971.59,390.075L971.59,422.841L1070.73,422.841L1070.73,464.888L971.59,464.888L971.59,505.528L1081.56,505.528L1081.56,552.216L907.747,552.216L907.747,346.06Z" style="fill-rule:nonzero;"/>
        <path d="M1253.12,467.982L1308.95,484.857C1305.2,500.513 1299.29,513.591 1291.23,524.091C1283.17,534.591 1273.16,542.513 1261.21,547.857C1249.25,553.2 1234.04,555.872 1215.58,555.872C1193.17,555.872 1174.86,552.614 1160.66,546.099C1146.46,539.583 1134.2,528.122 1123.89,511.716C1113.58,495.31 1108.42,474.31 1108.42,448.716C1108.42,414.591 1117.49,388.364 1135.63,370.036C1153.77,351.708 1179.43,342.544 1212.62,342.544C1238.59,342.544 1259,347.794 1273.86,358.294C1288.72,368.794 1299.76,384.919 1306.98,406.669L1250.73,419.185C1248.76,412.903 1246.7,408.31 1244.54,405.403C1240.98,400.528 1236.62,396.778 1231.46,394.153C1226.31,391.528 1220.54,390.216 1214.17,390.216C1199.73,390.216 1188.67,396.028 1180.98,407.653C1175.17,416.278 1172.26,429.825 1172.26,448.294C1172.26,471.169 1175.73,486.849 1182.67,495.333C1189.61,503.818 1199.36,508.06 1211.92,508.06C1224.11,508.06 1233.32,504.638 1239.55,497.794C1245.79,490.95 1250.31,481.013 1253.12,467.982Z" style="fill-rule:nonzero;"/>
        <path d="M1325.4,346.06L1519.04,346.06L1519.04,396.966L1454.08,396.966L1454.08,552.216L1390.37,552.216L1390.37,396.966L1325.4,396.966L1325.4,346.06Z" style="fill-rule:nonzero;"/>
        <path d="M1536.76,484.013L1597.37,480.216C1598.68,490.06 1601.36,497.56 1605.39,502.716C1611.95,511.06 1621.33,515.232 1633.51,515.232C1642.61,515.232 1649.61,513.099 1654.54,508.833C1659.46,504.568 1661.92,499.622 1661.92,493.997C1661.92,488.653 1659.58,483.872 1654.89,479.653C1650.2,475.435 1639.33,471.45 1622.26,467.7C1594.33,461.419 1574.4,453.075 1562.5,442.669C1550.5,432.263 1544.5,418.997 1544.5,402.872C1544.5,392.278 1547.57,382.271 1553.71,372.849C1559.85,363.427 1569.08,356.021 1581.41,350.63C1593.74,345.239 1610.64,342.544 1632.11,342.544C1658.45,342.544 1678.54,347.443 1692.36,357.239C1706.19,367.036 1714.42,382.622 1717.04,403.997L1657,407.513C1655.4,398.232 1652.05,391.482 1646.94,387.263C1641.83,383.044 1634.78,380.935 1625.78,380.935C1618.37,380.935 1612.79,382.505 1609.04,385.646C1605.29,388.786 1603.42,392.607 1603.42,397.107C1603.42,400.388 1604.97,403.341 1608.06,405.966C1611.06,408.685 1618.18,411.216 1629.43,413.56C1657.28,419.56 1677.22,425.63 1689.27,431.771C1701.32,437.911 1710.08,445.528 1715.57,454.622C1721.05,463.716 1723.79,473.888 1723.79,485.138C1723.79,498.357 1720.14,510.544 1712.83,521.7C1705.51,532.857 1695.29,541.318 1682.17,547.083C1669.04,552.849 1652.5,555.732 1632.53,555.732C1597.47,555.732 1573.18,548.982 1559.68,535.482C1546.18,521.982 1538.54,504.825 1536.76,484.013Z" style="fill-rule:nonzero;"/>
    </g>
</svg>
