<svg>
	<path d="M22.387,20.433l118.696,0c25.852,0 45.214,27.551 58.087,82.651c12.873,55.1 19.31,133.513 19.31,235.237c0,104.549 -7.015,186.258 -21.044,245.126c-14.029,58.868 -35.44,88.302 -64.234,88.302l-39.093,0l0,384.291l-71.722,0l0,-1035.61Zm71.722,441.511l17.497,0c13.767,0 23.435,-10.714 29.004,-32.142c5.57,-21.428 8.355,-48.861 8.355,-82.298c0,-32.495 -2.417,-60.045 -7.251,-82.651c-4.834,-22.605 -13.924,-33.908 -27.27,-33.908l-20.335,0l0,230.999Z" />
	<path d="M256.784,1056.04l0,-1035.61l119.011,0c22.068,0 38.935,8.477 50.599,25.431c11.665,16.954 21.07,48.39 28.216,94.307c7.146,45.917 10.719,101.842 10.719,167.774c0,57.455 -2.732,107.022 -8.197,148.7c-5.464,41.679 -12.978,75.469 -22.541,101.371c-6.095,16.483 -14.449,30.141 -25.063,40.972c8.512,12.716 14.712,25.431 18.6,38.147c2.628,8.477 6.437,26.608 11.429,54.394c4.991,27.786 8.328,49.213 10.009,64.284l34.521,300.227l-80.707,0l-38.146,-316.475c-4.834,-40.972 -9.143,-67.58 -12.926,-79.825c-5.149,-16.012 -10.981,-24.018 -17.497,-24.018l-6.305,0l0,420.318l-71.722,0Zm71.722,-615.995l30.107,0c3.258,0 9.563,-4.71 18.916,-14.129c4.729,-4.238 8.591,-15.07 11.586,-32.495c2.995,-17.425 4.492,-37.44 4.492,-60.045c0,-33.437 -2.364,-59.104 -7.093,-77c-4.729,-17.896 -13.609,-26.843 -26.64,-26.843l-31.368,0l0,210.512Z" />
	<path d="M492.442,538.943c0,-169.069 10.508,-300.698 31.526,-394.887c21.017,-94.189 50.284,-141.283 87.8,-141.283c38.462,0 68.096,46.27 88.904,138.811c20.807,92.54 31.21,222.168 31.21,388.882c0,121.033 -4.545,220.284 -13.635,297.754c-9.09,77.471 -22.226,137.752 -39.407,180.843c-17.182,43.091 -38.593,64.637 -64.235,64.637c-26.061,0 -47.63,-18.602 -64.707,-55.807c-17.077,-37.204 -30.922,-96.072 -41.536,-176.604c-10.613,-80.531 -15.92,-181.313 -15.92,-302.346Zm71.406,1.413c0,104.549 4.335,179.665 13.005,225.347c8.669,45.681 20.466,68.522 35.388,68.522c15.343,0 27.217,-22.37 35.624,-67.11c8.407,-44.739 12.611,-125.035 12.611,-240.888c0,-97.485 -4.388,-168.715 -13.162,-213.691c-8.775,-44.975 -20.676,-67.462 -35.704,-67.462c-14.397,0 -25.956,22.84 -34.678,68.522c-8.723,45.682 -13.084,121.268 -13.084,226.76Z" />
	<path d="M866.499,20.433l71.564,0l0,563.014c0,118.207 -2.338,208.157 -7.014,269.851c-4.677,61.694 -14.082,113.969 -28.216,156.825c-14.134,42.855 -32.236,64.283 -54.304,64.283c-23.329,0 -41.404,-14.128 -54.225,-42.385c-12.82,-28.256 -22.725,-69.582 -29.713,-123.976c-6.989,-54.394 -11.113,-121.621 -12.374,-201.681l68.254,-41.679c0.105,45.682 0.998,79.59 2.68,101.724c1.681,22.134 4.518,40.03 8.512,53.688c2.732,8.948 6.62,13.421 11.664,13.421c7.987,0 13.845,-13.304 17.576,-39.912c3.731,-26.608 5.596,-71.466 5.596,-134.572l0,-638.601Z" />
	<path d="M985.51,20.433l191.363,0l0,221.109l-119.799,0l0,164.595l111.13,0l0,211.218l-111.13,0l0,204.154l123.267,0l0,234.531l-194.831,0l0,-1035.61Z" />
	<path d="M1372.65,632.896l62.579,84.77c-4.204,78.648 -10.824,144.345 -19.862,197.09c-9.037,52.746 -20.255,92.541 -33.654,119.385c-13.398,26.844 -30.449,40.265 -51.151,40.265c-25.116,0 -45.634,-16.365 -61.555,-49.095c-15.92,-32.731 -29.66,-90.304 -41.22,-172.719c-11.559,-82.416 -17.339,-187.907 -17.339,-316.475c0,-171.423 10.167,-303.17 30.501,-395.24c20.335,-92.069 49.102,-138.104 86.303,-138.104c29.109,0 51.992,26.373 68.648,79.119c16.656,52.745 29.03,133.748 37.122,243.007l-63.052,62.871c-2.207,-31.553 -4.519,-54.63 -6.936,-69.229c-3.993,-24.489 -8.88,-43.327 -14.66,-56.513c-5.779,-13.187 -12.242,-19.78 -19.388,-19.78c-16.184,0 -28.584,29.199 -37.201,87.596c-6.515,43.327 -9.773,111.378 -9.773,204.154c0,114.91 3.888,193.676 11.665,236.296c7.776,42.621 18.705,63.931 32.787,63.931c13.661,0 23.986,-17.19 30.974,-51.568c6.988,-34.379 12.059,-84.299 15.212,-149.761Z" />
	<path d="M1453.67,20.433l217.057,0l0,255.723l-72.825,0l0,779.884l-71.407,0l0,-779.884l-72.825,0l0,-255.723Z" />
	<path d="M1690.59,713.428l67.939,-19.074c1.471,49.45 4.466,87.125 8.985,113.027c7.356,41.914 17.865,62.871 31.526,62.871c10.194,0 18.049,-10.714 23.566,-32.142c5.517,-21.428 8.275,-46.27 8.275,-74.527c0,-26.844 -2.627,-50.862 -7.881,-72.054c-5.254,-21.193 -17.445,-41.208 -36.57,-60.046c-31.316,-31.553 -53.647,-73.467 -66.993,-125.742c-13.451,-52.274 -20.177,-118.913 -20.177,-199.915c0,-53.217 3.442,-103.49 10.325,-150.82c6.883,-47.33 17.234,-84.535 31.053,-111.614c13.819,-27.079 32.761,-40.619 56.826,-40.619c29.529,0 52.044,24.607 67.544,73.82c15.501,49.214 24.722,127.509 27.665,234.884l-67.309,17.66c-1.786,-46.623 -5.543,-80.531 -11.27,-101.724c-5.727,-21.192 -13.635,-31.788 -23.724,-31.788c-8.301,0 -14.554,7.888 -18.758,23.665c-4.203,15.776 -6.305,34.967 -6.305,57.572c0,16.483 1.734,31.318 5.202,44.505c3.363,13.657 11.349,26.373 23.96,38.146c31.211,30.141 53.568,60.634 67.072,91.481c13.503,30.847 23.329,69.111 29.477,114.793c6.147,45.681 9.221,96.779 9.221,153.292c0,66.403 -4.099,127.626 -12.295,183.668c-8.197,56.043 -19.652,98.545 -34.364,127.508c-14.712,28.964 -33.26,43.445 -55.643,43.445c-39.303,0 -66.52,-33.908 -81.653,-101.724c-15.132,-67.816 -23.697,-153.999 -25.694,-258.548Z" />
</svg>